# Blender v2.83.0 OBJ File: 'BlenderNatureAsset.blend'
# www.blender.org
mtllib grass.mtl
v 2.511425 0.005939 -0.641672
v 2.532117 0.005939 -0.684229
v 2.664418 0.005939 -0.619903
v 2.643726 0.005939 -0.577345
v 2.580257 0.321870 -0.631878
v 2.582330 0.321870 -0.636142
v 2.595586 0.321870 -0.629697
v 2.593513 0.321870 -0.625432
v 2.522864 0.155760 -0.651990
v 2.531067 0.155760 -0.668860
v 2.583512 0.155760 -0.643360
v 2.575309 0.155760 -0.626490
v 2.646693 0.005939 -0.438718
v 2.601043 0.005939 -0.426254
v 2.562295 0.005939 -0.568169
v 2.607945 0.005939 -0.580633
v 2.599379 0.291011 -0.534331
v 2.594804 0.291045 -0.533088
v 2.591118 0.286227 -0.546521
v 2.595693 0.286193 -0.547765
v 2.620686 0.133593 -0.483362
v 2.602588 0.133683 -0.478432
v 2.587586 0.120647 -0.533256
v 2.605684 0.120556 -0.538186
v 2.610094 0.218239 -0.508471
v 2.598805 0.218322 -0.505411
v 2.589993 0.206362 -0.537426
v 2.601283 0.206280 -0.540486
v 2.511425 0.005939 -0.641672
v 2.532117 0.005939 -0.684229
v 2.664418 0.005939 -0.619903
v 2.643726 0.005939 -0.577345
v 2.580257 0.321870 -0.631878
v 2.582330 0.321870 -0.636142
v 2.595586 0.321870 -0.629697
v 2.593513 0.321870 -0.625432
v 2.522864 0.155760 -0.651990
v 2.531067 0.155760 -0.668860
v 2.583512 0.155760 -0.643360
v 2.575309 0.155760 -0.626490
v 2.393963 0.005939 -0.699306
v 2.439837 0.005939 -0.710918
v 2.475936 0.005939 -0.568306
v 2.430062 0.005939 -0.556694
v 2.433110 0.281071 -0.631410
v 2.437707 0.281071 -0.632574
v 2.441287 0.278981 -0.618429
v 2.436691 0.278981 -0.617265
v 2.409225 0.090367 -0.697211
v 2.427410 0.090367 -0.701814
v 2.441720 0.090367 -0.645282
v 2.423535 0.090367 -0.640679
v 2.428293 0.212968 -0.634195
v 2.440619 0.212968 -0.637315
v 2.450220 0.207363 -0.599384
v 2.437894 0.207363 -0.596264
vn -0.8987 0.0385 -0.4369
vn 0.4353 0.0949 -0.8953
vn 0.7866 0.4847 0.3825
vn -0.4353 0.0949 0.8953
vn 0.0000 -1.0000 0.0000
vn 0.0000 1.0000 0.0000
vn -0.8452 0.3418 -0.4109
vn 0.4369 0.0422 -0.8985
vn 0.8948 -0.1008 0.4350
vn -0.4369 0.0422 0.8985
vn 0.2457 0.3641 0.8984
vn -0.9592 0.1242 0.2538
vn -0.2479 0.3319 -0.9102
vn 0.9570 0.1092 -0.2687
vn -0.0793 0.9450 -0.3172
vn 0.2516 0.3041 0.9188
vn -0.9665 0.0386 0.2539
vn -0.2624 -0.0394 -0.9642
vn 0.9606 0.0403 -0.2750
vn 0.2470 0.3565 0.9010
vn -0.9672 0.0421 0.2504
vn -0.2610 -0.1056 -0.9595
vn 0.9593 0.0418 -0.2792
vn -0.2448 0.0683 -0.9672
vn 0.9558 0.1668 -0.2420
vn 0.1750 0.7011 0.6912
vn -0.9558 0.1668 0.2420
vn 0.0348 0.9899 0.1375
vn -0.2162 0.4727 -0.8543
vn 0.9695 0.0246 -0.2439
vn 0.2280 -0.3699 0.9007
vn -0.9688 0.0246 0.2467
vn -0.2450 0.0569 -0.9679
vn 0.9698 0.0580 -0.2369
vn 0.2358 0.2771 0.9315
vn -0.9657 0.0580 0.2530
usemtl Material.007
s off
f 9//1 10//1 2//1 1//1
f 10//2 11//2 3//2 2//2
f 11//3 12//3 4//3 3//3
f 12//4 9//4 1//4 4//4
f 1//5 2//5 3//5 4//5
f 8//6 7//6 6//6 5//6
f 5//7 6//7 10//7 9//7
f 6//8 7//8 11//8 10//8
f 7//9 8//9 12//9 11//9
f 8//10 5//10 9//10 12//10
f 21//11 22//11 14//11 13//11
f 22//12 23//12 15//12 14//12
f 23//13 24//13 16//13 15//13
f 24//14 21//14 13//14 16//14
f 13//5 14//5 15//5 16//5
f 20//15 19//15 18//15 17//15
f 25//16 26//16 22//16 21//16
f 26//17 27//17 23//17 22//17
f 27//18 28//18 24//18 23//18
f 28//19 25//19 21//19 24//19
f 17//20 18//20 26//20 25//20
f 18//21 19//21 27//21 26//21
f 19//22 20//22 28//22 27//22
f 20//23 17//23 25//23 28//23
f 37//1 38//1 30//1 29//1
f 38//2 39//2 31//2 30//2
f 39//3 40//3 32//3 31//3
f 40//4 37//4 29//4 32//4
f 29//5 30//5 31//5 32//5
f 36//6 35//6 34//6 33//6
f 33//7 34//7 38//7 37//7
f 34//8 35//8 39//8 38//8
f 35//9 36//9 40//9 39//9
f 36//10 33//10 37//10 40//10
f 49//24 50//24 42//24 41//24
f 50//25 51//25 43//25 42//25
f 51//26 52//26 44//26 43//26
f 52//27 49//27 41//27 44//27
f 41//5 42//5 43//5 44//5
f 48//28 47//28 46//28 45//28
f 53//29 54//29 50//29 49//29
f 54//30 55//30 51//30 50//30
f 55//31 56//31 52//31 51//31
f 56//32 53//32 49//32 52//32
f 45//33 46//33 54//33 53//33
f 46//34 47//34 55//34 54//34
f 47//35 48//35 56//35 55//35
f 48//36 45//36 53//36 56//36
