# Blender v2.83.0 OBJ File: 'BlenderNatureAsset.blend'
# www.blender.org
mtllib rock1.mtl
v 1.945720 -0.107820 1.507435
v 2.211363 -0.105101 1.682162
v 1.853861 -0.107820 1.790151
v 1.558501 -0.125875 1.470390
v 1.853861 -0.107820 1.224718
v 2.186213 -0.107820 1.332708
v 1.998338 0.144426 1.790151
v 1.617458 0.131247 1.682162
v 1.685591 0.135460 1.260371
v 2.041428 0.145534 1.181809
v 2.330207 0.175530 1.512504
v 1.978355 0.290147 1.597785
v 1.891727 -0.107820 1.673610
v 2.088576 -0.107658 1.610136
v 2.033085 -0.107820 1.776313
v 2.252969 -0.105167 1.507435
v 2.087077 -0.107820 1.404734
v 1.766456 -0.107820 1.507435
v 1.660312 -0.107820 1.673611
v 1.891727 -0.107820 1.341259
v 1.684108 -0.122329 1.311491
v 2.033085 -0.107820 1.238557
v 2.335107 0.011614 1.611834
v 2.301363 0.008051 1.406509
v 1.918626 -0.012958 1.839789
v 2.152867 -0.001802 1.776315
v 1.533756 -0.010490 1.594928
v 1.682153 -0.012959 1.776315
v 1.738874 -0.009076 1.195971
v 1.524357 -0.037698 1.333703
v 2.141073 -0.003077 1.238555
v 1.948377 -0.003094 1.151019
v 2.214322 0.182517 1.675339
v 1.744165 0.130799 1.776313
v 1.613687 0.163202 1.490095
v 1.869343 0.171585 1.139858
v 2.201902 0.180596 1.342871
v 1.984532 0.288255 1.706595
v 2.161911 0.281702 1.540865
v 1.785066 0.262166 1.631729
v 1.814541 0.248803 1.381325
v 2.007866 0.255902 1.312347
vn 0.0009 -1.0000 0.0003
vn 0.0181 -0.9998 0.0047
vn 0.0000 -1.0000 0.0000
vn 0.7261 -0.6655 0.1731
vn 0.0668 -0.4980 0.8646
vn -0.7021 -0.5865 0.4039
vn -0.3256 -0.5934 -0.7361
vn 0.4609 -0.4752 -0.7496
vn 0.6559 -0.2708 0.7046
vn -0.2463 -0.3120 0.9176
vn -0.9597 -0.2739 0.0631
vn -0.1741 -0.4568 -0.8724
vn 0.7031 -0.2833 -0.6522
vn 0.3374 0.4969 0.7995
vn -0.4055 0.7307 0.5492
vn -0.4926 0.8322 -0.2547
vn 0.2588 0.7694 -0.5840
vn 0.4643 0.8232 -0.3266
vn 0.0006 -1.0000 -0.0008
vn 0.0179 -0.9998 0.0050
vn 0.0086 -0.9999 0.0119
vn 0.0156 -0.9999 0.0007
vn 0.0006 -1.0000 0.0008
vn 0.0776 -0.9957 0.0496
vn 0.0731 -0.9970 -0.0237
vn 0.0629 -0.9969 0.0474
vn 0.0793 -0.9960 0.0404
vn 0.9847 -0.0679 -0.1606
vn 0.8628 -0.4877 -0.1333
vn 0.7644 -0.5792 -0.2832
vn 0.2498 0.1739 0.9525
vn 0.2629 -0.2970 0.9180
vn 0.4174 -0.4716 0.7768
vn -0.7718 0.0666 0.6323
vn -0.6947 -0.4488 0.5622
vn -0.4011 -0.6288 0.6661
vn -0.5484 0.1633 -0.8201
vn -0.3957 -0.5550 -0.7317
vn -0.4727 -0.7896 -0.3913
vn 0.4126 -0.0702 -0.9082
vn 0.3805 -0.3923 -0.8375
vn 0.0610 -0.6106 -0.7896
vn 0.3950 0.3366 0.8548
vn 0.6507 0.1863 0.7361
vn 0.7712 0.3466 0.5340
vn -0.5771 0.2489 0.7778
vn -0.2576 0.1111 0.9598
vn -0.0690 0.3317 0.9409
vn -0.7579 0.5758 -0.3068
vn -0.9107 0.4129 -0.0102
vn -0.8816 0.4626 0.0943
vn 0.2435 0.0483 -0.9687
vn -0.2031 -0.1537 -0.9670
vn -0.5629 0.1543 -0.8120
vn 0.7787 0.2342 -0.5820
vn 0.7095 0.1554 -0.6874
vn 0.6767 0.1812 -0.7136
vn 0.0504 0.9986 0.0145
vn 0.4256 0.7995 0.4239
vn 0.5411 0.7636 0.3523
vn -0.1389 0.9900 0.0251
vn -0.3177 0.7448 0.5868
vn -0.0737 0.4957 0.8654
vn -0.1551 0.9854 -0.0708
vn -0.4350 0.8950 -0.0990
vn -0.5817 0.8004 0.1446
vn -0.0816 0.9885 -0.1270
vn -0.1527 0.9307 -0.3323
vn -0.4019 0.8418 -0.3604
vn 0.0090 0.9929 -0.1182
vn 0.3862 0.8508 -0.3564
vn 0.3770 0.7528 -0.5396
usemtl Material.004
s off
f 1//1 14//1 13//1
f 2//2 14//2 16//2
f 1//3 13//3 18//3
f 1//3 18//3 20//3
f 1//3 20//3 17//3
f 2//4 16//4 23//4
f 3//5 15//5 25//5
f 4//6 19//6 27//6
f 5//7 21//7 29//7
f 6//8 22//8 31//8
f 2//9 23//9 26//9
f 3//10 25//10 28//10
f 4//11 27//11 30//11
f 5//12 29//12 32//12
f 6//13 31//13 24//13
f 7//14 33//14 38//14
f 8//15 34//15 40//15
f 9//16 35//16 41//16
f 10//17 36//17 42//17
f 11//18 37//18 39//18
f 13//3 15//3 3//3
f 13//19 14//19 15//19
f 14//20 2//20 15//20
f 16//21 17//21 6//21
f 16//22 14//22 17//22
f 14//23 1//23 17//23
f 18//24 19//24 4//24
f 18//3 13//3 19//3
f 13//3 3//3 19//3
f 20//25 21//25 5//25
f 20//26 18//26 21//26
f 18//27 4//27 21//27
f 17//3 22//3 6//3
f 17//3 20//3 22//3
f 20//3 5//3 22//3
f 23//28 24//28 11//28
f 23//29 16//29 24//29
f 16//30 6//30 24//30
f 25//31 26//31 7//31
f 25//32 15//32 26//32
f 15//33 2//33 26//33
f 27//34 28//34 8//34
f 27//35 19//35 28//35
f 19//36 3//36 28//36
f 29//37 30//37 9//37
f 29//38 21//38 30//38
f 21//39 4//39 30//39
f 31//40 32//40 10//40
f 31//41 22//41 32//41
f 22//42 5//42 32//42
f 26//43 33//43 7//43
f 26//44 23//44 33//44
f 23//45 11//45 33//45
f 28//46 34//46 8//46
f 28//47 25//47 34//47
f 25//48 7//48 34//48
f 30//49 35//49 9//49
f 30//50 27//50 35//50
f 27//51 8//51 35//51
f 32//52 36//52 10//52
f 32//53 29//53 36//53
f 29//54 9//54 36//54
f 24//55 37//55 11//55
f 24//56 31//56 37//56
f 31//57 10//57 37//57
f 38//58 39//58 12//58
f 38//59 33//59 39//59
f 33//60 11//60 39//60
f 40//61 38//61 12//61
f 40//62 34//62 38//62
f 34//63 7//63 38//63
f 41//64 40//64 12//64
f 41//65 35//65 40//65
f 35//66 8//66 40//66
f 42//67 41//67 12//67
f 42//68 36//68 41//68
f 36//69 9//69 41//69
f 39//70 42//70 12//70
f 39//71 37//71 42//71
f 37//72 10//72 42//72
