# Blender v2.83.0 OBJ File: 'BlenderNatureAsset.blend'
# www.blender.org
mtllib tree3.mtl
v 0.989057 -0.065052 2.080523
v 0.989057 1.936622 2.144121
v 1.195322 -0.065052 2.165960
v 1.150351 1.958331 2.210931
v 1.280760 -0.065052 2.372225
v 1.217161 1.934948 2.372225
v 1.195322 -0.065052 2.578490
v 1.150351 2.090138 2.533518
v 0.989057 -0.065052 2.663927
v 0.989057 1.969473 2.600328
v 0.782793 -0.065052 2.578490
v 0.827764 1.976734 2.533518
v 0.697355 -0.065052 2.372225
v 0.760954 1.909783 2.372225
v 0.782793 -0.065052 2.165960
v 0.831535 1.954481 2.237526
v 1.452317 3.445953 2.322096
v 1.485597 3.433751 2.336778
v 1.499382 3.428697 2.372225
v 1.485597 3.433751 2.407671
v 1.452317 3.445953 2.422354
v 1.419037 3.458155 2.407671
v 1.405252 3.463209 2.372225
v 1.419037 3.458155 2.336778
v 1.107716 2.582978 2.255734
v 1.032629 2.689128 2.289853
v 1.001527 2.701810 2.372225
v 1.032629 2.689128 2.454597
v 1.107716 2.658511 2.488716
v 1.182803 2.627894 2.454597
v 1.213906 2.539680 2.372225
v 1.182803 2.641739 2.289853
v 0.989057 0.261615 2.144121
v 1.150351 0.261615 2.210931
v 1.217161 0.261615 2.372225
v 1.150351 0.261615 2.533518
v 0.989057 0.261615 2.600328
v 0.827764 0.261615 2.533518
v 0.760954 0.261615 2.372225
v 0.827764 0.261615 2.210931
v 1.048387 2.296730 2.199928
v 0.926425 2.278327 2.287776
v 0.881240 2.351634 2.372225
v 0.930196 2.299555 2.494057
v 1.048387 2.254884 2.544522
v 1.166577 2.281421 2.494057
v 1.215533 2.275080 2.372225
v 1.166577 2.223297 2.250392
v -0.508672 2.780619 2.378727
v -0.518624 2.774388 2.354702
v -0.508672 2.780619 2.330677
v -0.493415 2.836787 2.336555
v -0.500707 2.847762 2.354702
v -0.493415 2.836787 2.372849
v 0.172208 2.497442 2.433453
v 0.144084 2.539772 2.363463
v 0.172208 2.497442 2.293473
v 0.113363 2.280813 2.456122
v 0.113363 2.280813 2.270804
v 0.074983 2.256780 2.363463
v 0.989057 1.701564 2.144121
v 1.150351 1.703327 2.210931
v 1.217161 1.702949 2.372225
v 1.150351 1.588473 2.533518
v 0.989057 1.613874 2.600328
v 0.827764 1.563590 2.533518
v 0.760954 1.567123 2.372225
v 0.827764 1.668069 2.210931
v 1.777324 2.638476 3.146640
v 1.755094 2.626774 3.190435
v 1.757707 2.579729 3.208576
v 1.836977 2.618556 3.146640
v 1.847837 2.595804 3.190435
v 1.817360 2.559809 3.208576
v 1.356282 2.007055 2.888757
v 1.461859 1.964850 2.845026
v 1.505590 2.007055 2.739450
v 1.356282 2.158665 2.888757
v 1.505590 2.158665 2.739450
v 1.461859 2.276261 2.845026
v 1.751062 3.039425 1.734704
v 1.768348 3.023219 1.746813
v 1.763285 3.044449 1.744558
v 1.741404 2.994875 1.695132
v 1.768613 2.976703 1.716784
v 1.760643 2.980377 1.695550
v 1.464080 2.392725 1.981364
v 1.390205 2.438624 1.949821
v 1.494680 2.425092 2.057515
v 1.427289 2.664754 1.984703
v 1.474222 2.688706 2.006029
v 1.493662 2.637691 2.057515
v -0.061377 2.637912 2.360672
v -0.039891 2.605573 2.307201
v -0.084847 2.440075 2.289883
v -0.114169 2.421715 2.360672
v -0.039891 2.605573 2.414142
v -0.084847 2.440075 2.431461
v 0.355662 2.432913 2.451270
v 0.284002 2.179132 2.478876
v 0.366314 2.484461 2.366039
v 0.354553 2.433024 2.291799
v 0.285111 2.179021 2.261021
v 0.237264 2.149866 2.366039
v 0.294232 3.063208 2.699264
v 0.287501 3.082039 2.693916
v 0.294232 3.086047 2.674755
v 0.338137 3.049002 2.691855
v 0.340687 3.071934 2.685343
v 0.337872 3.075042 2.663951
v 0.436273 2.696924 2.498255
v 0.442813 2.755757 2.481548
v 0.435592 2.763729 2.426668
v 0.323631 2.733368 2.517264
v 0.306363 2.781680 2.503544
v 0.323631 2.791963 2.454386
v 1.124511 0.981465 2.236771
v 1.180618 0.981465 2.372225
v 1.124511 0.954390 2.507679
v 0.989057 0.981465 2.563786
v 0.853603 0.981465 2.507679
v 0.797497 0.966330 2.372225
v 0.853603 0.981465 2.236771
v 0.989057 0.981465 2.180664
v 0.977299 2.475111 2.288771
v 0.989057 1.887660 2.144121
v 1.150351 1.904646 2.210931
v 1.217161 1.886114 2.372225
v 0.989057 1.895350 2.600328
v 0.827764 1.953705 2.533518
v 0.760954 1.834979 2.372225
v 0.830741 1.897664 2.231927
v 1.789882 2.634282 3.146640
v 1.774619 2.620254 3.190435
v 1.770265 2.575535 3.208576
v 1.356282 2.126747 2.888757
v 1.505590 2.126747 2.739450
v 0.345250 2.041213 3.333805
v 0.311255 2.030730 3.337466
v 0.290775 2.011294 3.317864
v 0.345250 2.079562 3.293815
v 0.311255 2.083881 3.282042
v 0.290775 2.047788 3.279809
v 0.674324 1.897305 2.883860
v 0.592350 1.800743 2.868138
v 0.733247 1.889225 2.982937
v 0.492947 1.747645 2.984624
v 0.529550 1.819972 3.053515
v 0.628789 1.833427 3.105347
v 1.016835 2.407128 1.367575
v 1.052479 2.411926 1.382339
v 0.982024 2.411075 1.388217
v 1.029946 2.486708 1.379908
v 1.002993 2.482642 1.399321
v 1.056065 2.470480 1.391060
v 1.040434 2.257931 1.846295
v 1.118919 2.209167 1.879806
v 0.959445 2.245710 1.904631
v 1.108144 2.033216 1.853602
v 0.896433 2.030659 1.871262
v 1.001036 2.018800 1.809237
v 0.938860 2.519377 2.372225
v 0.979264 2.486170 2.475155
v 1.076807 2.508898 2.517790
v 1.174350 2.447391 2.475155
v 1.214754 2.401830 2.372225
v 1.076807 2.433850 2.226660
v 1.768486 2.998986 1.731168
v 1.761909 3.011069 1.719026
v 1.746031 3.016216 1.714088
v 1.407969 2.546946 1.966531
v 1.494192 2.526932 2.057515
v 1.065952 2.678668 3.512531
v 1.112058 2.661241 3.532218
v 1.158165 2.671594 3.512531
v 1.085093 2.751467 3.505157
v 1.123145 2.760334 3.521789
v 1.161197 2.736339 3.505157
v 1.167773 2.479589 2.990156
v 1.099976 2.522341 3.019789
v 1.032179 2.506543 2.990156
v 1.162371 2.364232 3.003294
v 0.998074 2.376836 3.003294
v 1.080222 2.345787 3.038370
vn 0.3827 0.0000 -0.9239
vn 0.9239 0.0000 -0.3827
vn 0.8714 -0.4902 -0.0214
vn 0.3006 -0.6216 0.7234
vn -0.3827 0.0000 0.9239
vn -0.9239 0.0000 0.3827
vn -0.2402 0.1739 -0.9550
vn -0.4937 0.0497 -0.8682
vn -0.8942 0.0244 -0.4469
vn 0.0000 -1.0000 0.0000
vn 0.3442 0.9389 -0.0000
vn -0.8182 0.4340 -0.3771
vn -0.8182 0.4340 0.3771
vn -0.3268 0.2204 0.9190
vn 0.3796 -0.0888 0.9209
vn 0.8110 -0.2671 0.5204
vn 0.7970 -0.2637 -0.5434
vn 0.4485 -0.1148 -0.8864
vn -0.3670 0.1632 -0.9158
vn -0.8569 0.2563 -0.4473
vn -0.8691 0.2833 0.4055
vn -0.3881 0.2188 0.8953
vn 0.4410 0.0818 0.8938
vn 0.9332 0.0009 0.3594
vn 0.8368 -0.5174 -0.1790
vn 0.0242 -0.4382 -0.8985
vn 0.3766 0.1770 -0.9093
vn 0.9093 0.1770 -0.3766
vn 0.9093 0.1770 0.3766
vn 0.3766 0.1770 0.9093
vn -0.3766 0.1770 0.9093
vn -0.9093 0.1770 0.3766
vn -0.3766 0.1770 -0.9093
vn -0.9093 0.1770 -0.3766
vn 0.1764 0.8853 0.4303
vn 0.4081 0.8445 -0.3468
vn 0.3996 0.8466 0.3515
vn -0.3392 0.2330 0.9114
vn 0.3214 0.1363 0.9371
vn 0.9261 0.0026 0.3772
vn 0.9255 0.0024 -0.3787
vn 0.3509 0.8438 0.4060
vn -0.8874 0.2450 -0.3904
vn -0.8874 0.2450 0.3904
vn -0.0329 0.1129 0.9931
vn -0.0099 0.1067 -0.9942
vn -0.5919 -0.6860 -0.4231
vn -0.5987 -0.6794 0.4242
vn 0.9345 0.3485 -0.0723
vn 0.9057 0.0196 0.4235
vn -0.0565 0.1216 0.9910
vn 0.0185 0.1079 -0.9940
vn -0.4877 -0.7660 -0.4188
vn -0.5070 -0.7598 0.4071
vn 0.3825 -0.0468 -0.9228
vn 0.9228 -0.0467 -0.3823
vn 0.9309 -0.0497 0.3619
vn 0.3741 -0.0532 0.9259
vn -0.3741 -0.0555 0.9257
vn -0.9216 -0.0570 0.3840
vn -0.3776 -0.0479 -0.9247
vn -0.9152 -0.0524 -0.3996
vn 0.2926 0.8763 0.3827
vn 0.1212 0.3630 0.9239
vn -0.4574 -0.1591 0.8749
vn 0.6536 0.2273 -0.7219
vn -0.8028 0.5690 0.1783
vn -0.2438 0.7371 -0.6302
vn 0.7736 -0.6317 -0.0504
vn 0.1283 -0.6776 0.7241
vn -0.6177 0.0000 0.7864
vn 0.7864 0.0000 -0.6177
vn -0.6045 0.7707 0.2018
vn 0.2342 0.7267 -0.6458
vn 0.9331 0.1956 -0.3018
vn 0.3893 0.5553 -0.7349
vn -0.7839 0.2868 -0.5507
vn -0.5606 0.7361 0.3795
vn 0.0204 0.6012 0.7989
vn 0.8160 -0.0626 0.5746
vn 0.5693 -0.8137 0.1171
vn -0.1756 -0.7337 -0.6563
vn -0.6561 0.2495 -0.7122
vn -0.4428 0.8482 -0.2908
vn 0.4515 0.6672 0.5925
vn 0.7470 0.0041 0.6648
vn 0.2101 0.7896 -0.5765
vn 0.1992 0.8906 0.4089
vn -0.0474 0.1295 0.9904
vn 0.0207 0.1330 -0.9909
vn -0.3647 -0.8238 -0.4340
vn -0.3652 -0.8207 0.4393
vn 0.2454 0.9505 0.1905
vn 0.2251 0.2869 0.9311
vn -0.0088 -0.4837 0.8752
vn -0.9229 -0.2458 0.2963
vn -0.9435 0.1332 -0.3036
vn -0.0482 0.5959 -0.8016
vn 0.9717 -0.2266 -0.0666
vn 0.9623 -0.2496 -0.1080
vn -0.0715 -0.2213 0.9726
vn -0.7533 0.2011 0.6262
vn -0.6613 0.6220 -0.4192
vn 0.0399 0.4151 -0.9089
vn 0.3823 0.0468 -0.9229
vn 0.9229 0.0468 -0.3823
vn 0.9213 0.0477 0.3860
vn 0.3860 0.0477 0.9213
vn -0.3823 0.0468 0.9229
vn -0.9237 0.0473 0.3802
vn -0.3823 0.0468 -0.9229
vn -0.9237 0.0473 -0.3802
vn 0.3169 0.9347 -0.1611
vn -0.5214 0.4966 -0.6939
vn -0.4379 0.0485 -0.8977
vn -0.9152 0.0225 -0.4023
vn -0.4894 -0.1702 0.8553
vn 0.6151 0.2139 -0.7589
vn -0.1464 0.7140 0.6847
vn -0.8030 0.4301 0.4125
vn 0.1482 -0.7327 0.6642
vn -0.0687 -0.8046 0.5899
vn -0.8350 -0.0218 -0.5498
vn 0.7013 0.3203 0.6368
vn 0.1623 0.9714 0.1735
vn -0.7197 0.6641 -0.2027
vn -0.0864 -0.9432 0.3207
vn 0.0231 -0.9010 0.4332
vn -0.9138 0.1454 -0.3792
vn 0.8158 -0.0434 0.5767
vn -0.5279 0.2451 -0.8132
vn 0.3996 0.0907 -0.9122
vn 0.9883 -0.0385 -0.1477
vn -0.9605 0.2743 0.0458
vn -0.4338 -0.6689 -0.6037
vn 0.3489 -0.7099 -0.6117
vn -0.2195 0.9703 -0.1015
vn 0.5563 0.8246 -0.1030
vn 0.9912 -0.0420 -0.1259
vn -0.9496 0.2948 -0.1069
vn -0.2483 -0.9387 -0.2392
vn 0.2209 -0.9490 -0.2250
vn -0.5359 0.1955 -0.8213
vn -0.7929 0.2375 -0.5612
vn -0.8509 0.2799 0.4445
vn -0.0238 0.9038 -0.4274
vn 0.3488 0.8405 -0.4146
vn 0.9294 0.0016 0.3691
vn 0.9292 0.2015 -0.3098
vn 0.4163 0.5459 -0.7272
vn -0.8047 0.2826 -0.5222
vn 0.7978 -0.0655 0.5993
vn -0.6433 0.2492 -0.7239
vn 0.7468 0.0041 0.6650
vn -0.3772 0.1608 0.9120
vn 0.4042 0.0643 0.9124
vn 0.9985 -0.0429 0.0341
vn -0.9674 0.2523 -0.0206
vn 0.3822 -0.7897 0.4798
vn -0.4838 -0.7231 0.4931
vn -0.2203 0.9753 -0.0159
vn 0.5181 0.8540 -0.0468
vn 0.9989 -0.0450 0.0156
vn -0.9611 0.2617 0.0884
vn 0.2795 -0.9473 0.1564
vn -0.4172 -0.8886 0.1905
usemtl troc
s off
f 126//1 2//1 4//1 127//1
f 127//2 4//2 6//2 128//2
f 76//3 77//3 72//3 73//3
f 75//4 76//4 73//4 74//4
f 129//5 10//5 12//5 130//5
f 130//6 12//6 14//6 131//6
f 25//7 26//7 24//7 17//7
f 132//8 16//8 2//8 126//8
f 131//9 14//9 16//9 132//9
f 1//10 3//10 5//10 7//10 9//10 11//10 13//10 15//10
f 18//11 17//11 24//11 23//11 22//11 21//11 20//11 19//11
f 26//12 27//12 23//12 24//12
f 27//13 28//13 22//13 23//13
f 28//14 29//14 21//14 22//14
f 29//15 30//15 20//15 21//15
f 30//16 31//16 19//16 20//16
f 31//17 32//17 18//17 19//17
f 32//18 25//18 17//18 18//18
f 167//19 125//19 26//19 25//19
f 125//20 162//20 27//20 26//20
f 162//21 163//21 28//21 27//21
f 163//22 164//22 29//22 28//22
f 164//23 165//23 30//23 29//23
f 165//24 166//24 31//24 30//24
f 89//25 87//25 86//25 85//25
f 87//26 88//26 84//26 86//26
f 1//27 33//27 34//27 3//27
f 3//28 34//28 35//28 5//28
f 5//29 35//29 36//29 7//29
f 7//30 36//30 37//30 9//30
f 9//31 37//31 38//31 11//31
f 11//32 38//32 39//32 13//32
f 15//33 40//33 33//33 1//33
f 13//34 39//34 40//34 15//34
f 158//35 156//35 153//35 154//35
f 93//36 94//36 52//36 53//36
f 97//37 93//37 53//37 54//37
f 12//38 10//38 45//38 44//38
f 10//39 8//39 46//39 45//39
f 8//40 6//40 47//40 46//40
f 6//41 4//41 48//41 47//41
f 156//42 157//42 155//42 153//42
f 51//43 50//43 53//43 52//43
f 50//44 49//44 54//44 53//44
f 98//45 97//45 54//45 49//45
f 94//46 95//46 51//46 52//46
f 95//47 96//47 50//47 51//47
f 96//48 98//48 49//48 50//48
f 112//49 113//49 110//49 109//49
f 111//50 112//50 109//50 108//50
f 100//51 99//51 55//51 58//51
f 102//52 103//52 59//52 57//52
f 103//53 104//53 60//53 59//53
f 104//54 100//54 58//54 60//54
f 124//55 61//55 62//55 117//55
f 117//56 62//56 63//56 118//56
f 118//57 63//57 64//57 119//57
f 119//58 64//58 65//58 120//58
f 120//59 65//59 66//59 121//59
f 121//60 66//60 67//60 122//60
f 123//61 68//61 61//61 124//61
f 122//62 67//62 68//62 123//62
f 133//63 69//63 70//63 134//63
f 134//64 70//64 71//64 135//64
f 136//65 75//65 74//65 135//65
f 137//66 79//66 69//66 133//66
f 80//67 78//67 71//67 70//67
f 79//68 80//68 70//68 69//68
f 64//69 63//69 77//69 76//69
f 65//70 64//70 76//70 75//70
f 129//71 65//71 75//71 136//71
f 128//72 6//72 79//72 137//72
f 8//73 10//73 78//73 80//73
f 6//74 8//74 80//74 79//74
f 168//75 169//75 83//75 82//75
f 169//76 170//76 81//76 83//76
f 171//77 90//77 81//77 170//77
f 90//78 91//78 83//78 81//78
f 91//79 92//79 82//79 83//79
f 172//80 89//80 85//80 168//80
f 47//81 48//81 87//81 89//81
f 48//82 41//82 88//82 87//82
f 167//83 25//83 90//83 171//83
f 25//84 32//84 91//84 90//84
f 32//85 31//85 92//85 91//85
f 166//86 47//86 89//86 172//86
f 56//36 57//36 94//36 93//36
f 55//37 56//37 93//37 97//37
f 58//45 55//45 97//45 98//45
f 57//46 59//46 95//46 94//46
f 59//47 60//47 96//47 95//47
f 60//48 58//48 98//48 96//48
f 43//87 42//87 102//87 101//87
f 44//88 43//88 101//88 99//88
f 12//89 44//89 99//89 100//89
f 42//90 16//90 103//90 102//90
f 16//91 14//91 104//91 103//91
f 14//92 12//92 100//92 104//92
f 109//93 110//93 107//93 106//93
f 108//94 109//94 106//94 105//94
f 114//95 111//95 108//95 105//95
f 115//96 114//96 105//96 106//96
f 116//97 115//97 106//97 107//97
f 113//98 116//98 107//98 110//98
f 101//99 102//99 113//99 112//99
f 99//100 101//100 112//100 111//100
f 55//101 99//101 111//101 114//101
f 56//102 55//102 114//102 115//102
f 57//103 56//103 115//103 116//103
f 102//104 57//104 116//104 113//104
f 33//105 124//105 117//105 34//105
f 34//106 117//106 118//106 35//106
f 35//107 118//107 119//107 36//107
f 36//108 119//108 120//108 37//108
f 37//109 120//109 121//109 38//109
f 38//110 121//110 122//110 39//110
f 40//111 123//111 124//111 33//111
f 39//112 122//112 123//112 40//112
f 61//1 126//1 127//1 62//1
f 62//2 127//2 128//2 63//2
f 146//113 144//113 142//113 141//113
f 144//114 145//114 143//114 142//114
f 68//115 132//115 126//115 61//115
f 67//116 131//116 132//116 68//116
f 72//63 133//63 134//63 73//63
f 73//64 134//64 135//64 74//64
f 78//117 136//117 135//117 71//117
f 77//118 137//118 133//118 72//118
f 10//71 129//71 136//71 78//71
f 63//72 128//72 137//72 77//72
f 138//119 141//119 142//119 139//119
f 139//120 142//120 143//120 140//120
f 147//121 148//121 139//121 140//121
f 148//122 149//122 138//122 139//122
f 145//123 147//123 140//123 143//123
f 149//124 146//124 141//124 138//124
f 129//125 130//125 144//125 146//125
f 130//126 131//126 145//126 144//126
f 67//127 66//127 148//127 147//127
f 66//128 65//128 149//128 148//128
f 131//129 67//129 147//129 145//129
f 65//130 129//130 146//130 149//130
f 150//131 152//131 154//131 153//131
f 151//132 150//132 153//132 155//132
f 157//133 159//133 151//133 155//133
f 160//134 158//134 154//134 152//134
f 161//135 160//135 152//135 150//135
f 159//136 161//136 150//136 151//136
f 42//137 41//137 156//137 158//137
f 41//138 48//138 157//138 156//138
f 48//139 4//139 159//139 157//139
f 16//140 42//140 158//140 160//140
f 2//141 16//141 160//141 161//141
f 4//142 2//142 161//142 159//142
f 41//143 42//143 125//143 167//143
f 42//144 43//144 162//144 125//144
f 43//145 44//145 163//145 162//145
f 180//146 181//146 176//146 177//146
f 179//147 180//147 177//147 178//147
f 46//148 47//148 166//148 165//148
f 85//149 86//149 169//149 168//149
f 86//150 84//150 170//150 169//150
f 88//151 171//151 170//151 84//151
f 92//152 172//152 168//152 82//152
f 41//153 167//153 171//153 88//153
f 31//154 166//154 172//154 92//154
f 173//155 174//155 177//155 176//155
f 174//156 175//156 178//156 177//156
f 182//157 179//157 178//157 175//157
f 181//158 183//158 173//158 176//158
f 184//159 182//159 175//159 174//159
f 183//160 184//160 174//160 173//160
f 164//161 163//161 181//161 180//161
f 165//162 164//162 180//162 179//162
f 46//163 165//163 179//163 182//163
f 163//164 44//164 183//164 181//164
f 45//165 46//165 182//165 184//165
f 44//166 45//166 184//166 183//166
